<svg xmlns="http://www.w3.org/2000/svg" xmlns:xlink="http://www.w3.org/1999/xlink" width="497.806" height="370.605" viewBox="0 0 497.806 370.605">
  <defs>
    <linearGradient id="linear-gradient" x1="0.905" y1="0.13" x2="0.182" y2="0.906" gradientUnits="objectBoundingBox">
      <stop offset="0" stop-color="#d63031" stop-opacity="0.902"/>
      <stop offset="1" stop-color="#ff7979"/>
    </linearGradient>
  </defs>
  <path id="tulip" d="M481.7,119.652a154.844,154.844,0,0,0-77.827-1.966c1.29-16.829,3.3-30.759,7.257-38.081l7.982-14.758H402.33a158.226,158.226,0,0,0-71.4,17.638c-28.5-2.359-62.689-43.957-73.747-60.269L248.91,9.988l-8.287,12.223c-11.061,16.316-45.25,57.914-73.75,60.273a158.229,158.229,0,0,0-71.4-17.638H78.7L86.68,79.6c3.96,7.322,5.968,21.252,7.257,38.081a154.854,154.854,0,0,0-77.827,1.967L0,124.337l11.786,11.941c9.321,9.443,16.477,31.634,24.761,57.328,12.027,37.3,26.995,83.718,57.868,121.05a173.77,173.77,0,0,0,60.862,47.388c24.173,11.249,52.271,17.463,83.626,18.548h20c31.354-1.085,59.453-7.3,83.625-18.548a173.778,173.778,0,0,0,60.862-47.388c30.873-37.332,45.841-83.751,57.868-121.05,8.285-25.694,15.44-47.885,24.762-57.328l11.786-11.941-16.11-4.686ZM258.9,360.512v-85.99c0-156.234,89.483-184.11,129.092-188.783-3.733,16.122-4.742,38.07-5.933,63.972-2.019,43.887-4.531,98.505-22.47,140.716-18.86,44.378-51.855,67.379-100.689,70.085ZM229.01,67.244A265.556,265.556,0,0,0,248.9,44.611,265.864,265.864,0,0,0,268.8,67.244c13.842,13.972,27.154,23.839,39.809,29.536-3.4,2.636-6.785,5.468-10.114,8.551-23.388,21.66-39.955,50.42-49.588,85.96-9.634-35.54-26.2-64.3-49.588-85.96-3.329-3.083-6.708-5.915-10.114-8.551C201.856,91.083,215.168,81.216,229.01,67.244ZM238.9,274.522v85.99c-48.834-2.707-81.829-25.707-100.689-70.085-17.939-42.211-20.452-96.829-22.47-140.716-1.191-25.9-2.2-47.851-5.934-63.972C149.42,90.412,238.9,118.288,238.9,274.522ZM55.583,187.469c-6.749-20.931-12.484-38.717-19.831-51.845a133.537,133.537,0,0,1,59.45,3.057c.194,3.931.378,7.924.563,11.949,2.092,45.488,4.7,102.1,24.042,147.62a157.211,157.211,0,0,0,15.457,28.3C88.932,290.847,70.506,233.752,55.583,187.469Zm386.641,0c-14.924,46.282-33.35,103.376-79.681,139.076A157.159,157.159,0,0,0,378,298.25c19.346-45.521,21.95-102.132,24.042-147.62.185-4.025.369-8.018.564-11.949a133.523,133.523,0,0,1,59.45-3.057C454.708,148.752,448.973,166.539,442.224,187.469Z" transform="translate(0 -9.988)" opacity="0.85" fill="url(#linear-gradient)"/>
</svg>
